<svg width="32" height="32" viewBox="0 0 32 32" fill="none" xmlns="http://www.w3.org/2000/svg">
<path d="M32 16C32 7.16339 24.8366 0 16 0C7.1634 0 0 7.16339 0 16C0 24.8366 7.1634 32 16 32C24.8366 32 32 24.8366 32 16Z" fill="#B23F2A"/>
<path d="M18.2427 12.1692C18.2427 11.3219 18.9303 10.6343 19.7776 10.6343C20.6249 10.6343 21.3125 11.3207 21.3125 12.1692C21.3125 13.0165 20.6249 13.7041 19.7776 13.7041C18.9303 13.7041 18.2427 13.0165 18.2427 12.1692Z" fill="#D6D5D5"/>
<path d="M18.2427 19.7239C18.2427 18.8766 18.9303 18.189 19.7776 18.189C20.6249 18.189 21.3125 18.8766 21.3125 19.7239C21.3125 20.5712 20.6249 21.2588 19.7776 21.2588C18.9303 21.2588 18.2427 20.5724 18.2427 19.7239Z" fill="#D6D5D5"/>
<path d="M25.1426 15.947C25.1426 15.0997 24.455 14.4121 23.6077 14.4121C22.7604 14.4121 22.0728 15.0985 22.0728 15.947C22.0728 16.7955 22.7592 17.4819 23.6077 17.4819C24.455 17.4819 25.1426 16.7955 25.1426 15.947Z" fill="#D6D5D5"/>
<path d="M21.3113 15.947C21.3113 15.0997 20.6237 14.4121 19.7764 14.4121C18.9291 14.4121 18.2415 15.0985 18.2415 15.947C18.2415 16.7943 18.9291 17.4819 19.7764 17.4819C20.6237 17.4819 21.3113 16.7955 21.3113 15.947Z" fill="#D6D5D5"/>
<path d="M15.9997 9.92625C16.847 9.92625 17.5347 9.23864 17.5347 8.39135C17.5347 7.54405 16.847 6.85645 15.9997 6.85645C15.1525 6.85645 14.4648 7.54405 14.4648 8.39135C14.4648 9.23864 15.1513 9.92625 15.9997 9.92625Z" fill="#D6D5D5"/>
<path d="M15.9997 25.0366C16.847 25.0366 17.5347 24.3502 17.5347 23.5017C17.5347 22.6544 16.847 21.9668 15.9997 21.9668C15.1525 21.9668 14.4648 22.6544 14.4648 23.5017C14.4648 24.349 15.1513 25.0366 15.9997 25.0366Z" fill="#D6D5D5"/>
<path d="M15.9997 17.4809C16.847 17.4809 17.5347 16.7933 17.5347 15.946C17.5347 15.0987 16.847 14.4111 15.9997 14.4111C15.1525 14.4111 14.4648 15.0987 14.4648 15.946C14.4648 16.7933 15.1513 17.4809 15.9997 17.4809Z" fill="#D6D5D5"/>
<path d="M10.6885 15.947C10.6885 15.0997 11.3761 14.4121 12.2234 14.4121C13.0707 14.4121 13.7583 15.0985 13.7583 15.947C13.7583 16.7943 13.0707 17.4819 12.2234 17.4819C11.3761 17.4819 10.6885 16.7955 10.6885 15.947Z" fill="#D6D5D5"/>
<path d="M6.85718 15.947C6.85718 15.0997 7.54479 14.4121 8.39208 14.4121C9.23937 14.4121 9.92698 15.0985 9.92698 15.947C9.92698 16.7943 9.23937 17.4819 8.39208 17.4819C7.54479 17.4819 6.85718 16.7955 6.85718 15.947Z" fill="#D6D5D5"/>
</svg>
