<svg width="32" height="32" viewBox="0 0 32 32" fill="none" xmlns="http://www.w3.org/2000/svg">
<path d="M32 16C32 7.16339 24.8366 0 16 0C7.16339 0 0 7.16339 0 16C0 24.8366 7.16339 32 16 32C24.8366 32 32 24.8366 32 16Z" fill="#B23F2A"/>
<path d="M13.7571 12.1692C13.7571 11.3219 13.0695 10.6343 12.2222 10.6343C11.3749 10.6343 10.6873 11.3207 10.6873 12.1692C10.6873 13.0177 11.3749 13.7041 12.2222 13.7041C13.0695 13.7041 13.7571 13.0165 13.7571 12.1692Z" fill="#D6D5D5"/>
<path d="M13.7571 19.7239C13.7571 18.8766 13.0695 18.189 12.2222 18.189C11.3749 18.189 10.6873 18.8766 10.6873 19.7239C10.6873 20.5712 11.3749 21.2588 12.2222 21.2588C13.0695 21.2588 13.7571 20.5724 13.7571 19.7239Z" fill="#D6D5D5"/>
<path d="M6.85718 15.947C6.85718 15.0997 7.54479 14.4121 8.39208 14.4121C9.23937 14.4121 9.92698 15.0985 9.92698 15.947C9.92698 16.7955 9.24057 17.4819 8.39208 17.4819C7.54359 17.4819 6.85718 16.7955 6.85718 15.947Z" fill="#D6D5D5"/>
<path d="M10.6885 15.947C10.6885 15.0997 11.3761 14.4121 12.2234 14.4121C13.0707 14.4121 13.7583 15.0985 13.7583 15.947C13.7583 16.7955 13.0707 17.4819 12.2234 17.4819C11.3761 17.4819 10.6885 16.7955 10.6885 15.947Z" fill="#D6D5D5"/>
<path d="M15.9997 9.92625C15.1525 9.92625 14.4648 9.23864 14.4648 8.39135C14.4648 7.54405 15.1525 6.85645 15.9997 6.85645C16.847 6.85645 17.5346 7.54405 17.5346 8.39135C17.5346 9.23864 16.8482 9.92625 15.9997 9.92625Z" fill="#D6D5D5"/>
<path d="M15.9997 25.0366C15.1525 25.0366 14.4648 24.3502 14.4648 23.5017C14.4648 22.6532 15.1525 21.9668 15.9997 21.9668C16.847 21.9668 17.5346 22.6544 17.5346 23.5017C17.5346 24.349 16.8482 25.0366 15.9997 25.0366Z" fill="#D6D5D5"/>
<path d="M15.9997 17.4809C15.1525 17.4809 14.4648 16.7933 14.4648 15.946C14.4648 15.0987 15.1525 14.4111 15.9997 14.4111C16.847 14.4111 17.5346 15.0987 17.5346 15.946C17.5346 16.7933 16.8482 17.4809 15.9997 17.4809Z" fill="#D6D5D5"/>
<path d="M21.3113 15.947C21.3113 15.0997 20.6237 14.4121 19.7764 14.4121C18.9291 14.4121 18.2415 15.0985 18.2415 15.947C18.2415 16.7955 18.9291 17.4819 19.7764 17.4819C20.6237 17.4819 21.3113 16.7955 21.3113 15.947Z" fill="#D6D5D5"/>
<path d="M25.1426 15.947C25.1426 15.0997 24.455 14.4121 23.6077 14.4121C22.7604 14.4121 22.0728 15.0985 22.0728 15.947C22.0728 16.7955 22.7604 17.4819 23.6077 17.4819C24.455 17.4819 25.1426 16.7955 25.1426 15.947Z" fill="#D6D5D5"/>
</svg>
