<svg width="24" height="24" viewBox="0 0 24 24" fill="none" xmlns="http://www.w3.org/2000/svg">
<path d="M9.19663 7.21257C9.19663 6.15346 8.33712 5.29395 7.278 5.29395C6.21888 5.29395 5.35938 6.15197 5.35938 7.21257C5.35938 8.27318 6.21888 9.1312 7.278 9.1312C8.33712 9.1312 9.19663 8.27169 9.19663 7.21257Z" fill="#6F756E"/>
<path d="M9.19663 16.655C9.19663 15.5958 8.33712 14.7363 7.278 14.7363C6.21888 14.7363 5.35938 15.5958 5.35938 16.655C5.35938 17.7141 6.21888 18.5736 7.278 18.5736C8.33712 18.5736 9.19663 17.7156 9.19663 16.655Z" fill="#6F756E"/>
<path d="M0.571289 11.9343C0.571289 10.8751 1.4308 10.0156 2.48992 10.0156C3.54903 10.0156 4.40854 10.8736 4.40854 11.9343C4.40854 12.9949 3.55052 13.8529 2.48992 13.8529C1.42931 13.8529 0.571289 12.9949 0.571289 11.9343Z" fill="#6F756E"/>
<path d="M5.36035 11.9343C5.36035 10.8751 6.21986 10.0156 7.27898 10.0156C8.3381 10.0156 9.19761 10.8736 9.19761 11.9343C9.19761 12.9949 8.3381 13.8529 7.27898 13.8529C6.21986 13.8529 5.36035 12.9949 5.36035 11.9343Z" fill="#6F756E"/>
<path d="M11.9997 4.40854C10.9406 4.40854 10.0811 3.54903 10.0811 2.48992C10.0811 1.4308 10.9406 0.571289 11.9997 0.571289C13.0588 0.571289 13.9183 1.4308 13.9183 2.48992C13.9183 3.54903 13.0603 4.40854 11.9997 4.40854Z" fill="#6F756E"/>
<path d="M11.9997 23.2957C10.9406 23.2957 10.0811 22.4377 10.0811 21.3771C10.0811 20.3165 10.9406 19.4585 11.9997 19.4585C13.0588 19.4585 13.9183 20.318 13.9183 21.3771C13.9183 22.4362 13.0603 23.2957 11.9997 23.2957Z" fill="#6F756E"/>
<path d="M11.9997 13.8514C10.9406 13.8514 10.0811 12.9919 10.0811 11.9328C10.0811 10.8737 10.9406 10.0142 11.9997 10.0142C13.0588 10.0142 13.9183 10.8737 13.9183 11.9328C13.9183 12.9919 13.0603 13.8514 11.9997 13.8514Z" fill="#6F756E"/>
<path d="M18.639 11.9343C18.639 10.8751 17.7795 10.0156 16.7204 10.0156C15.6613 10.0156 14.8018 10.8736 14.8018 11.9343C14.8018 12.9949 15.6613 13.8529 16.7204 13.8529C17.7795 13.8529 18.639 12.9949 18.639 11.9343Z" fill="#6F756E"/>
<path d="M23.4281 11.9343C23.4281 10.8751 22.5686 10.0156 21.5094 10.0156C20.4503 10.0156 19.5908 10.8736 19.5908 11.9343C19.5908 12.9949 20.4503 13.8529 21.5094 13.8529C22.5686 13.8529 23.4281 12.9949 23.4281 11.9343Z" fill="#6F756E"/>
</svg>
