<svg width="36" height="36" viewBox="0 0 36 36" fill="none" xmlns="http://www.w3.org/2000/svg">
<g clip-path="url(#clip0_4341_119)">
<path d="M23 18C23 20.7614 20.7614 23 18 23C15.2386 23 13 20.7614 13 18M7 18C7 20.9174 8.15893 23.7153 10.2218 25.7782C12.2847 27.8411 15.0826 29 18 29C20.9174 29 23.7153 27.8411 25.7782 25.7782C27.8411 23.7153 29 20.9174 29 18C29 15.0826 27.8411 12.2847 25.7782 10.2218C23.7153 8.15893 20.9174 7 18 7C15.0826 7 12.2847 8.15893 10.2218 10.2218C8.15893 12.2847 7 15.0826 7 18Z" stroke="#556C6B" stroke-width="2"/>
</g>
<defs>
<clipPath id="clip0_4341_119">
<rect width="24" height="24" fill="white" transform="translate(6 6)"/>
</clipPath>
</defs>
</svg>
