<svg width="32" height="32" viewBox="0 0 32 32" fill="none" xmlns="http://www.w3.org/2000/svg">
<path d="M32 16C32 7.1634 24.8366 0 16 0C7.1634 0 0 7.1634 0 16C0 24.8366 7.1634 32 16 32C24.8366 32 32 24.8366 32 16Z" fill="white"/>
<path d="M11.9091 6.31396C8.80809 6.31396 6.28564 8.83128 6.28564 11.9239V19.9359C6.28564 23.0277 8.81043 25.5427 11.9122 25.5427H19.9479C23.0489 25.5427 25.5714 23.0253 25.5714 19.9327V11.9208C25.5714 8.82896 23.0466 6.31396 19.9448 6.31396H11.9091ZM21.5535 9.51875C21.9971 9.51875 22.3571 9.87768 22.3571 10.3199C22.3571 10.7622 21.9971 11.1211 21.5535 11.1211C21.1099 11.1211 20.7499 10.7622 20.7499 10.3199C20.7499 9.87768 21.1099 9.51875 21.5535 9.51875ZM15.9285 11.1211C18.5875 11.1211 20.7499 13.2772 20.7499 15.9283C20.7499 18.5795 18.5875 20.7355 15.9285 20.7355C13.2695 20.7355 11.1071 18.5795 11.1071 15.9283C11.1071 13.2772 13.2695 11.1211 15.9285 11.1211ZM15.9285 12.7235C15.076 12.7235 14.2585 13.0612 13.6557 13.6622C13.0529 14.2632 12.7142 15.0784 12.7142 15.9283C12.7142 16.7783 13.0529 17.5934 13.6557 18.1944C14.2585 18.7955 15.076 19.1331 15.9285 19.1331C16.781 19.1331 17.5985 18.7955 18.2013 18.1944C18.8041 17.5934 19.1428 16.7783 19.1428 15.9283C19.1428 15.0784 18.8041 14.2632 18.2013 13.6622C17.5985 13.0612 16.781 12.7235 15.9285 12.7235Z" fill="#6F756E"/>
</svg>
