<svg width="198" height="37" viewBox="0 0 198 37" fill="none" xmlns="http://www.w3.org/2000/svg">
<g clip-path="url(#clip0_4853_1468)">
<path d="M96.5022 16.778C101.135 16.778 104.891 13.0221 104.891 8.38905C104.891 3.75597 101.135 0.00012207 96.5022 0.00012207C91.8691 0.00012207 88.1133 3.75597 88.1133 8.38905C88.1133 13.0221 91.8691 16.778 96.5022 16.778Z" fill="white"/>
<path d="M96.5022 36.8901C101.135 36.8901 104.891 33.1342 104.891 28.5012C104.891 23.8681 101.135 20.1122 96.5022 20.1122C91.8691 20.1122 88.1133 23.8681 88.1133 28.5012C88.1133 33.1342 91.8691 36.8901 96.5022 36.8901Z" fill="white"/>
<path d="M0 24.9303V11.949H5.35601C7.7006 11.949 9.03423 13.4547 9.03423 15.7563C9.03423 18.0578 7.7006 19.5635 5.35601 19.5635H1.80685V24.9195H0V24.9303ZM1.80685 17.9718H5.28072C6.43151 17.9718 7.11983 17.3372 7.11983 16.2295V15.3045C7.11983 14.186 6.43151 13.5515 5.28072 13.5515H1.80685V17.9718Z" fill="white"/>
<path d="M13.9045 24.9303H12.0977V11.949H17.4537C19.7445 11.949 21.1319 13.3794 21.1319 15.7563C21.1319 17.6384 20.2607 18.9182 18.5829 19.3484L21.4653 24.9303H19.4433L16.7438 19.542H13.8937V24.9303H13.9045ZM17.3784 17.9718C18.5292 17.9718 19.2175 17.3372 19.2175 16.2295V15.3045C19.2175 14.186 18.5292 13.5515 17.3784 13.5515H13.9045V17.9718H17.3784Z" fill="white"/>
<path d="M23.9609 18.4343C23.9609 14.0677 26.1335 11.7231 29.4998 11.7231C32.8661 11.7231 35.0386 14.0677 35.0386 18.4343C35.0386 22.8008 32.8661 25.1454 29.4998 25.1454C26.1335 25.1454 23.9609 22.8008 23.9609 18.4343ZM33.1027 19.499V17.3803C33.1027 14.9066 31.6508 13.3472 29.4998 13.3472C27.3488 13.3472 25.8968 14.9066 25.8968 17.3803V19.499C25.8968 21.9727 27.3488 23.5322 29.4998 23.5322C31.6508 23.5322 33.1027 21.9727 33.1027 19.499Z" fill="white"/>
<path d="M44.6663 11.9492V21.4889C44.6663 23.7152 43.1283 25.1564 40.859 25.1564C38.7402 25.1564 37.4711 23.9088 37.1055 22.0697L38.7617 21.6933C38.9984 22.8118 39.6329 23.5324 40.8805 23.5324C42.1281 23.5324 42.8702 22.7903 42.8702 21.2416V13.541H38.5144V11.9385H44.6663V11.9492Z" fill="white"/>
<path d="M48.5703 24.9303V11.949H56.6581V13.5515H50.3772V17.5631H56.1956V19.1656H50.3772V23.3278H56.6581V24.9303H48.5703Z" fill="white"/>
<path d="M59.6992 18.4343C59.6992 14.1 61.7212 11.7231 65.0337 11.7231C67.2277 11.7231 68.7335 12.7449 69.5723 14.6055L68.0881 15.4551C67.6042 14.1753 66.604 13.3364 65.0337 13.3364C62.915 13.3364 61.6351 14.9174 61.6351 17.4448V19.413C61.6351 21.9404 62.915 23.5214 65.0337 23.5214C66.6362 23.5214 67.7117 22.6072 68.1957 21.2736L69.6476 22.1448C68.8087 24.0054 67.2277 25.1347 65.0337 25.1347C61.7212 25.1347 59.6992 22.7578 59.6992 18.4235V18.4343Z" fill="white"/>
<path d="M75.5976 13.5515H71.5859V11.949H81.4268V13.5515H77.4152V24.9303H75.6083V13.5515H75.5976Z" fill="white"/>
<path d="M115.617 13.5516H111.605V11.9491H121.446V13.5516H117.435V24.9304H115.628V13.5516H115.617Z" fill="white"/>
<path d="M123.254 22.9193L124.534 21.7685C125.448 22.9408 126.523 23.5753 127.975 23.5753C129.739 23.5753 130.686 22.6611 130.686 21.2845C130.686 20.1552 130.073 19.5529 128.459 19.198L127.362 18.9722C124.932 18.4667 123.641 17.3697 123.641 15.3477C123.641 13.0461 125.383 11.7233 128.051 11.7233C130.008 11.7233 131.395 12.4439 132.385 13.7882L131.062 14.853C130.374 13.9065 129.427 13.3043 127.954 13.3043C126.373 13.3043 125.426 13.9926 125.426 15.2724C125.426 16.4232 126.147 16.9502 127.696 17.2836L128.793 17.5095C131.342 18.0687 132.471 19.198 132.471 21.1877C132.471 23.5861 130.782 25.1455 127.9 25.1455C125.781 25.1455 124.297 24.2959 123.254 22.9193Z" fill="white"/>
<path d="M144.022 24.9304L142.796 21.263H137.741L136.493 24.9304H134.676L139.171 11.9491H141.441L145.926 24.9304H144.033H144.022ZM140.301 13.6054H140.204L138.16 19.6712H142.344L140.301 13.6054Z" fill="white"/>
<path d="M150.174 24.9304L145.883 11.9491H147.776L149.873 18.4344L151.228 23.1558H151.325L152.701 18.4344L154.799 11.9491H156.638L152.304 24.9304H150.163H150.174Z" fill="white"/>
<path d="M163.114 18.6817L161.307 20.7252V24.9304H159.5V11.9491H161.307V18.714H161.382L163.221 16.4124L166.953 11.9491H169.115L164.372 17.4664L169.47 24.9197H167.254L163.114 18.671V18.6817Z" fill="white"/>
<path d="M171.746 24.9304V23.4032H173.553V13.4763H171.746V11.9491H177.156V13.4763H175.349V23.4032H177.156V24.9304H171.746Z" fill="white"/>
<path d="M179.836 22.9193L181.116 21.7685C182.03 22.9408 183.105 23.5753 184.557 23.5753C186.321 23.5753 187.268 22.6611 187.268 21.2845C187.268 20.1552 186.655 19.5529 185.041 19.198L183.944 18.9722C181.514 18.4667 180.223 17.3697 180.223 15.3477C180.223 13.0461 181.965 11.7233 184.633 11.7233C186.59 11.7233 187.977 12.4439 188.967 13.7882L187.644 14.853C186.956 13.9065 186.009 13.3043 184.536 13.3043C182.955 13.3043 182.008 13.9926 182.008 15.2724C182.008 16.4232 182.729 16.9502 184.278 17.2836L185.375 17.5095C187.924 18.0687 189.053 19.198 189.053 21.1877C189.053 23.5861 187.364 25.1455 184.482 25.1455C182.363 25.1455 180.879 24.2959 179.836 22.9193Z" fill="white"/>
<path d="M191.922 24.9304V23.4032H193.729V13.4763H191.922V11.9491H197.332V13.4763H195.525V23.4032H197.332V24.9304H191.922Z" fill="white"/>
</g>
<defs>
<clipPath id="clip0_4853_1468">
<rect width="197.333" height="36.8898" fill="white"/>
</clipPath>
</defs>
</svg>
